# xmcd
#
# Track frame offsets:
# 150
# 10213
# 22645
# 29893
# 45212
# 52991
# 67403
# 79498
# 90456
# 101945
# 113791
# 125235
# 136352
# 147222
# 158186
# 170263
# 181950
# 193140
# 205329
# 218368
# 232512
#
# Disc length: 3276 seconds
#
# Revision: 0
# Processed by: cddbd v1.5.2PL0 Copyright (c) Steve Scherf et al.
# Submitted via: Axialis_AX_CDPlayer 2.6
#
DISCID=210cca15
DTITLE=Jim Reeves - Best Of Jim Reeves
DYEAR=1900
DGENRE=
TTITLE0=Home
TTITLE1=Your Old Love Letter
TTITLE2=Till The End Of The World
TTITLE3=Making Believe
TTITLE4=The Oklahoma Hills
TTITLE5=The Highway To Nowhere
TTITLE6=Mexican Joe
TTITLE7=Then I'll Stop Loving You
TTITLE8=Penny Candy
TTITLE9=I'll Follow You
TTITLE10=It's Hard To Love Just One
TTITLE11=Red Eyed And Rowdy
TTITLE12=Let Me Remember (Things I Can't Forget)
TTITLE13=My Rambling Heart
TTITLE14=How Many
TTITLE15=Give Me One More Kiss
TTITLE16=Gypsy Heart
TTITLE17=The Wilder Your Heart Beats The Sweeter Your Love
TTITLE18=A Woman's Love
TTITLE19=Each Beat Of My Heart
TTITLE20=I Could Cry
EXTD=www.jim-reeves.com
EXTT0=
EXTT1=
EXTT2=
EXTT3=
EXTT4=
EXTT5=
EXTT6=
EXTT7=
EXTT8=
EXTT9=
EXTT10=
EXTT11=
EXTT12=
EXTT13=
EXTT14=
EXTT15=
EXTT16=
EXTT17=
EXTT18=
EXTT19=
EXTT20=
PLAYORDER=
